STARTFONT 2.1
FONT -FontForge-DejaVu Sans Mono-Bold-R-Normal-SansMono--32-310-75-75-P-189-ISO10646-1
SIZE 31 75 75
FONTBOUNDINGBOX 37 46 -14 -13
COMMENT "Generated by fontforge, http://fontforge.sourceforge.net"
COMMENT "Copyright (c) 2003 by Bitstream, Inc. All Rights Reserved."
COMMENT "DejaVu changes are in public domain"
STARTPROPERTIES 40
FOUNDRY "FontForge"
FAMILY_NAME "DejaVu Sans Mono"
WEIGHT_NAME "Bold"
SLANT "R"
SETWIDTH_NAME "Normal"
ADD_STYLE_NAME "SansMono"
PIXEL_SIZE 32
POINT_SIZE 310
RESOLUTION_X 75
RESOLUTION_Y 75
SPACING "P"
AVERAGE_WIDTH 189
CHARSET_REGISTRY "ISO10646"
CHARSET_ENCODING "1"
FONTNAME_REGISTRY ""
CHARSET_COLLECTIONS "ASCII ISOLatin1Encoding ISO8859-2 ISO8859-5 ISO8859-7 ISO8859-9 ISO8859-6 ISO8859-4 ISO10646-1"
FONT_NAME "DejaVuSansMono-Bold"
FACE_NAME "DejaVu Sans Mono Bold"
COPYRIGHT "Copyright (c) 2003 by Bitstream, Inc. All Rights Reserved."
FONT_VERSION "2.37"
FONT_ASCENT 24
FONT_DESCENT 8
UNDERLINE_POSITION -3
UNDERLINE_THICKNESS 2
X_HEIGHT 17
CAP_HEIGHT 22
RAW_ASCENT 759
RAW_DESCENT 240
NORM_SPACE 19
RELATIVE_WEIGHT 70
RELATIVE_SETWIDTH 50
SUPERSCRIPT_X 0
SUPERSCRIPT_Y 15
SUPERSCRIPT_SIZE 22
SUBSCRIPT_X 0
SUBSCRIPT_Y 4
SUBSCRIPT_SIZE 22
FIGURE_WIDTH 19
AVG_LOWERCASE_WIDTH 190
AVG_UPPERCASE_WIDTH 190
ENDPROPERTIES
CHARS 3316
STARTCHAR space
ENCODING 32
SWIDTH 602 0
DWIDTH 19 0
BBX 1 1 0 0
BITMAP
00
ENDCHAR
STARTCHAR exclam
ENCODING 33
SWIDTH 602 0
DWIDTH 19 0
BBX 4 23 8 0
BITMAP
F0
F0
F0
F0
F0
F0
F0
F0
F0
F0
F0
F0
F0
F0
F0
F0
00
00
00
F0
F0
F0
F0
ENDCHAR
STARTCHAR quotedbl
ENCODING 34
SWIDTH 602 0
DWIDTH 19 0
BBX 12 9 4 14
BITMAP
F0F0
F0F0
F0F0
F0F0
F0F0
F0F0
F0F0
F0F0
F0F0
ENDCHAR
STARTCHAR numbersign
ENCODING 35
SWIDTH 602 0
DWIDTH 19 0
BBX 19 23 0 0
BITMAP
01E380
01E380
01C780
01C780
03C700
03C700
3FFFE0
3FFFE0
3FFFE0
070E00
071E00
071E00
0F1C00
0F1C00
FFFF80
FFFF80
FFFF80
1E3800
1C7800
1C7800
3C7000
3C7000
38F000
ENDCHAR
STARTCHAR dollar
ENCODING 36
SWIDTH 602 0
DWIDTH 19 0
BBX 14 30 3 -5
BITMAP
0300
0300
0300
0300
0FE0
3FF8
7FF8
FFF8
FB18
F300
F300
FB00
FF00
7FE0
3FF0
1FF8
07FC
037C
033C
033C
C37C
FFFC
FFF8
FFF0
3FC0
0300
0300
0300
0300
0300
ENDCHAR
STARTCHAR percent
ENCODING 37
SWIDTH 602 0
DWIDTH 19 0
BBX 19 23 1 0
BITMAP
1E0000
7F8000
7F8000
F3C000
E1C000
E1C000
F3C000
7F80C0
7F83C0
1E0F00
007C00
01E000
078000
1E0F00
783FC0
403FC0
0079E0
0070E0
0070E0
0079E0
003FC0
003FC0
000F00
ENDCHAR
STARTCHAR ampersand
ENCODING 38
SWIDTH 602 0
DWIDTH 19 0
BBX 18 23 1 0
BITMAP
03F000
0FF800
0FF800
1FF800
1E0800
1E0000
1E0000
0F0000
0F8000
1F8000
3FC000
7FE3C0
7BE3C0
F1F3C0
F0FBC0
F0FF80
F07F80
F83F00
FC3F00
7FFF00
3FFF80
1FF780
0FC7C0
ENDCHAR
STARTCHAR quotesingle
ENCODING 39
SWIDTH 602 0
DWIDTH 19 0
BBX 4 9 8 14
BITMAP
F0
F0
F0
F0
F0
F0
F0
F0
F0
ENDCHAR
STARTCHAR parenleft
ENCODING 40
SWIDTH 602 0
DWIDTH 19 0
BBX 8 29 6 -5
BITMAP
0F
0E
1E
1C
3C
3C
78
78
78
F0
F0
F0
F0
F0
F0
F0
F0
F0
F0
F0
78
78
78
3C
3C
1C
1E
0E
0F
ENDCHAR
STARTCHAR parenright
ENCODING 41
SWIDTH 602 0
DWIDTH 19 0
BBX 8 29 5 -5
BITMAP
F0
70
78
38
3C
3C
1E
1E
1E
1E
0F
0F
0F
0F
0F
0F
0F
0F
0F
1E
1E
1E
1E
3C
3C
38
78
70
F0
ENDCHAR
STARTCHAR asterisk
ENCODING 42
SWIDTH 602 0
DWIDTH 19 0
BBX 15 14 2 9
BITMAP
0380
0380
4384
F39E
FBBE
3FF8
0FE0
0FE0
3FF8
FBBE
F39E
4384
0380
0380
ENDCHAR
STARTCHAR plus
ENCODING 43
SWIDTH 602 0
DWIDTH 19 0
BBX 18 18 1 1
BITMAP
01E000
01E000
01E000
01E000
01E000
01E000
01E000
FFFFC0
FFFFC0
FFFFC0
FFFFC0
01E000
01E000
01E000
01E000
01E000
01E000
01E000
ENDCHAR
STARTCHAR comma
ENCODING 44
SWIDTH 602 0
DWIDTH 19 0
BBX 7 10 5 -4
BITMAP
3E
3E
3E
3E
3E
3C
78
78
F0
E0
ENDCHAR
STARTCHAR hyphen
ENCODING 45
SWIDTH 602 0
DWIDTH 19 0
BBX 10 5 5 7
BITMAP
FFC0
FFC0
FFC0
FFC0
FFC0
ENDCHAR
STARTCHAR period
ENCODING 46
SWIDTH 602 0
DWIDTH 19 0
BBX 5 6 7 0
BITMAP
F8
F8
F8
F8
F8
F8
ENDCHAR
STARTCHAR slash
ENCODING 47
SWIDTH 602 0
DWIDTH 19 0
BBX 15 26 2 -3
BITMAP
000E
001C
001C
0038
0038
0070
0070
0070
00E0
00E0
01C0
01C0
0380
0380
0700
0700
0E00
0E00
1C00
1C00
1C00
3800
3800
7000
7000
E000
ENDCHAR
STARTCHAR zero
ENCODING 48
SWIDTH 602 0
DWIDTH 19 0
BBX 15 23 2 0
BITMAP
07C0
1FF0
3FF8
7FF8
7C7C
7C7C
F83E
F83E
F83E
F9BE
FBFE
FBFE
F9BE
F83E
F83E
F83E
F83E
7C7C
7C7C
7FFC
3FF8
1FF0
07C0
ENDCHAR
STARTCHAR one
ENCODING 49
SWIDTH 602 0
DWIDTH 19 0
BBX 15 23 3 0
BITMAP
1FC0
FFC0
FFC0
FFC0
E7C0
07C0
07C0
07C0
07C0
07C0
07C0
07C0
07C0
07C0
07C0
07C0
07C0
07C0
07C0
FFFE
FFFE
FFFE
FFFE
ENDCHAR
STARTCHAR two
ENCODING 50
SWIDTH 602 0
DWIDTH 19 0
BBX 15 23 2 0
BITMAP
1FE0
7FF8
7FFC
7FFC
607E
003E
003E
003E
003C
007C
00F8
00F0
01F0
03E0
07C0
0F80
1F00
3E00
7C00
FFFE
FFFE
FFFE
FFFE
ENDCHAR
STARTCHAR three
ENCODING 51
SWIDTH 602 0
DWIDTH 19 0
BBX 15 23 2 0
BITMAP
1FC0
7FF0
7FF8
7FFC
60FC
007C
007C
00F8
0FF8
0FE0
0FE0
0FF8
00FC
007E
003E
003E
003E
003E
C0FE
FFFC
FFFC
FFF8
3FC0
ENDCHAR
STARTCHAR four
ENCODING 52
SWIDTH 602 0
DWIDTH 19 0
BBX 16 23 2 0
BITMAP
00F8
01F8
01F8
03F8
03F8
07F8
0FF8
0EF8
1EF8
1CF8
3CF8
78F8
70F8
F0F8
FFFF
FFFF
FFFF
FFFF
00F8
00F8
00F8
00F8
00F8
ENDCHAR
STARTCHAR five
ENCODING 53
SWIDTH 602 0
DWIDTH 19 0
BBX 15 23 2 0
BITMAP
7FFC
7FFC
7FFC
7FFC
7800
7800
7800
7800
7FC0
7FF0
7FF8
7FFC
40FC
007E
003E
003E
003E
007E
C0FC
FFFC
FFF8
FFF0
3FC0
ENDCHAR
STARTCHAR six
ENCODING 54
SWIDTH 602 0
DWIDTH 19 0
BBX 15 23 2 0
BITMAP
03F8
0FFC
1FFC
3FFC
7E04
7C00
7C00
F9F0
FFF8
FFFC
FFFC
FC7E
F83E
F83E
F83E
F83E
F83E
783E
7C7C
7FFC
3FF8
1FF0
07E0
ENDCHAR
STARTCHAR seven
ENCODING 55
SWIDTH 602 0
DWIDTH 19 0
BBX 15 23 2 0
BITMAP
FFFE
FFFE
FFFE
FFFE
007E
007C
00FC
00F8
00F8
01F8
01F0
03F0
03E0
03E0
07E0
07C0
0FC0
0FC0
0F80
1F80
1F00
1F00
3F00
ENDCHAR
STARTCHAR eight
ENCODING 56
SWIDTH 602 0
DWIDTH 19 0
BBX 15 23 2 0
BITMAP
07C0
1FF0
3FF8
7FFC
7C7C
783C
783C
783C
7C7C
3FF8
1FF0
1FF0
7FFC
783C
F01E
F01E
F01E
F01E
F83E
7FFC
7FFC
3FF8
0FE0
ENDCHAR
STARTCHAR nine
ENCODING 57
SWIDTH 602 0
DWIDTH 19 0
BBX 15 23 2 0
BITMAP
0FC0
1FF0
3FF8
7FFC
7C7C
F83C
F83E
F83E
F83E
F83E
F83E
FC7E
7FFE
7FFE
3FFE
1F3E
007C
007C
40FC
7FF8
7FF0
7FE0
3F80
ENDCHAR
STARTCHAR colon
ENCODING 58
SWIDTH 602 0
DWIDTH 19 0
BBX 5 17 7 0
BITMAP
F8
F8
F8
F8
F8
F8
00
00
00
00
00
F8
F8
F8
F8
F8
F8
ENDCHAR
STARTCHAR semicolon
ENCODING 59
SWIDTH 602 0
DWIDTH 19 0
BBX 6 21 6 -4
BITMAP
7C
7C
7C
7C
7C
7C
00
00
00
00
00
7C
7C
7C
7C
7C
78
78
F0
F0
E0
ENDCHAR
STARTCHAR less
ENCODING 60
SWIDTH 602 0
DWIDTH 19 0
BBX 16 17 1 1
BITMAP
0001
000F
003F
00FF
07FE
1FF0
FF80
FE00
F000
FE00
FF80
1FF0
07FE
01FF
003F
000F
0001
ENDCHAR
STARTCHAR equal
ENCODING 61
SWIDTH 602 0
DWIDTH 19 0
BBX 16 11 1 4
BITMAP
FFFF
FFFF
FFFF
FFFF
0000
0000
0000
FFFF
FFFF
FFFF
FFFF
ENDCHAR
STARTCHAR greater
ENCODING 62
SWIDTH 602 0
DWIDTH 19 0
BBX 16 17 1 1
BITMAP
8000
F000
FC00
FF00
7FE0
0FF8
01FF
007F
000F
007F
01FF
0FF8
7FE0
FF00
FC00
F000
8000
ENDCHAR
STARTCHAR question
ENCODING 63
SWIDTH 602 0
DWIDTH 19 0
BBX 13 23 4 0
BITMAP
1F80
7FE0
FFF0
FFF8
E1F8
80F8
00F8
01F0
03F0
07E0
0FC0
0F00
1F00
1E00
1E00
1E00
1E00
0000
0000
1E00
1E00
1E00
1E00
ENDCHAR
STARTCHAR at
ENCODING 64
SWIDTH 602 0
DWIDTH 19 0
BBX 18 27 0 -5
BITMAP
01FC00
07FE00
0FFF00
1F0780
3C0380
3801C0
7801C0
707DC0
70FFC0
E1FFC0
E3C3C0
E381C0
E381C0
E381C0
E381C0
E381C0
E1C3C0
F1FFC0
70FFC0
707DC0
780000
3C0000
1E0000
1F8180
0FFF80
03FFC0
00FE00
ENDCHAR
STARTCHAR A
ENCODING 65
SWIDTH 602 0
DWIDTH 19 0
BBX 18 23 1 0
BITMAP
03F000
03F000
03F000
07F800
07F800
07F800
0FFC00
0F3C00
0F3C00
0F3C00
1F3E00
1E1E00
1E1E00
1FFE00
3FFF00
3FFF00
3FFF00
7C0F80
7C0F80
780780
780780
F807C0
F807C0
ENDCHAR
STARTCHAR B
ENCODING 66
SWIDTH 602 0
DWIDTH 19 0
BBX 16 23 2 0
BITMAP
FFE0
FFF8
FFFC
FFFE
F87E
F83E
F83E
F83E
F87C
FFFC
FFF0
FFF8
FFFC
F83E
F81F
F81F
F81F
F81F
F83F
FFFF
FFFE
FFFC
FFF0
ENDCHAR
STARTCHAR C
ENCODING 67
SWIDTH 602 0
DWIDTH 19 0
BBX 15 23 2 0
BITMAP
03FC
0FFE
1FFE
3FFE
7F06
7E02
7C00
FC00
F800
F800
F800
F800
F800
F800
F800
FC00
7C00
7E02
7F06
3FFE
1FFE
0FFE
03FC
ENDCHAR
STARTCHAR D
ENCODING 68
SWIDTH 602 0
DWIDTH 19 0
BBX 16 23 2 0
BITMAP
FFC0
FFF0
FFF8
FFFC
F87E
F83E
F83E
F81F
F81F
F81F
F81F
F81F
F81F
F81F
F81F
F81F
F83E
F83E
F87E
FFFC
FFF8
FFF0
FFC0
ENDCHAR
STARTCHAR E
ENCODING 69
SWIDTH 602 0
DWIDTH 19 0
BBX 15 23 3 0
BITMAP
FFFE
FFFE
FFFE
FFFE
F800
F800
F800
F800
F800
FFFC
FFFC
FFFC
FFFC
F800
F800
F800
F800
F800
F800
FFFE
FFFE
FFFE
FFFE
ENDCHAR
STARTCHAR F
ENCODING 70
SWIDTH 602 0
DWIDTH 19 0
BBX 15 23 3 0
BITMAP
FFFE
FFFE
FFFE
FFFE
F800
F800
F800
F800
F800
FFFC
FFFC
FFFC
FFFC
F800
F800
F800
F800
F800
F800
F800
F800
F800
F800
ENDCHAR
STARTCHAR G
ENCODING 71
SWIDTH 602 0
DWIDTH 19 0
BBX 16 23 2 0
BITMAP
03F0
0FFC
1FFE
3FFE
7F0E
7E02
7C00
F800
F800
F800
F87F
F87F
F87F
F87F
F80F
FC0F
7C0F
7E0F
7F0F
3FFF
1FFF
0FFE
03F8
ENDCHAR
STARTCHAR H
ENCODING 72
SWIDTH 602 0
DWIDTH 19 0
BBX 15 23 2 0
BITMAP
F83E
F83E
F83E
F83E
F83E
F83E
F83E
F83E
F83E
FFFE
FFFE
FFFE
FFFE
F83E
F83E
F83E
F83E
F83E
F83E
F83E
F83E
F83E
F83E
ENDCHAR
STARTCHAR I
ENCODING 73
SWIDTH 602 0
DWIDTH 19 0
BBX 15 23 2 0
BITMAP
FFFE
FFFE
FFFE
FFFE
07C0
07C0
07C0
07C0
07C0
07C0
07C0
07C0
07C0
07C0
07C0
07C0
07C0
07C0
07C0
FFFE
FFFE
FFFE
FFFE
ENDCHAR
STARTCHAR J
ENCODING 74
SWIDTH 602 0
DWIDTH 19 0
BBX 14 23 2 0
BITMAP
1FFC
1FFC
1FFC
1FFC
007C
007C
007C
007C
007C
007C
007C
007C
007C
007C
007C
007C
007C
C07C
E0FC
FFF8
FFF8
7FF0
1FC0
ENDCHAR
STARTCHAR K
ENCODING 75
SWIDTH 602 0
DWIDTH 19 0
BBX 17 23 2 0
BITMAP
F80F80
F81F00
F83E00
F87E00
F87C00
F8F800
F9F000
FBE000
FFE000
FFC000
FFE000
FFE000
FFF000
FDF800
FCF800
F87C00
F87C00
F83E00
F83E00
F81F00
F81F00
F80F80
F80F80
ENDCHAR
STARTCHAR L
ENCODING 76
SWIDTH 602 0
DWIDTH 19 0
BBX 14 23 4 0
BITMAP
F800
F800
F800
F800
F800
F800
F800
F800
F800
F800
F800
F800
F800
F800
F800
F800
F800
F800
F800
FFFC
FFFC
FFFC
FFFC
ENDCHAR
STARTCHAR M
ENCODING 77
SWIDTH 602 0
DWIDTH 19 0
BBX 16 23 1 0
BITMAP
FC3F
FC3F
FC3F
FC3F
FE7F
FE7F
FE7F
F66F
F7EF
F7EF
F7EF
F7EF
F3CF
F3CF
F3CF
F00F
F00F
F00F
F00F
F00F
F00F
F00F
F00F
ENDCHAR
STARTCHAR N
ENCODING 78
SWIDTH 602 0
DWIDTH 19 0
BBX 16 23 2 0
BITMAP
FC1F
FC1F
FE1F
FE1F
FE1F
FF1F
FF1F
FF1F
FB9F
FB9F
FB9F
F9DF
F9DF
F9DF
F9DF
F8FF
F8FF
F8FF
F87F
F87F
F87F
F83F
F83F
ENDCHAR
STARTCHAR O
ENCODING 79
SWIDTH 602 0
DWIDTH 19 0
BBX 16 23 1 0
BITMAP
07E0
1FF8
3FFC
3FFC
7E7E
7C3E
FC1E
F81F
F81F
F81F
F81F
F81F
F81F
F81F
F81F
F81F
781E
7C3E
7E7E
3FFC
3FFC
1FF8
07E0
ENDCHAR
STARTCHAR P
ENCODING 80
SWIDTH 602 0
DWIDTH 19 0
BBX 15 23 3 0
BITMAP
FFE0
FFF8
FFFC
FFFC
F87E
F83E
F83E
F83E
F83E
F83E
F87E
FFFC
FFFC
FFF8
FFE0
F800
F800
F800
F800
F800
F800
F800
F800
ENDCHAR
STARTCHAR Q
ENCODING 81
SWIDTH 602 0
DWIDTH 19 0
BBX 16 27 1 -4
BITMAP
07E0
1FF8
3FFC
3FFC
7E7E
7C3E
FC1E
F81F
F81F
F81F
F81F
F81F
F81F
F81F
F81F
F81F
781E
7C3E
7E7E
3FFC
3FFC
1FF0
07F8
007C
003E
001C
0010
ENDCHAR
STARTCHAR R
ENCODING 82
SWIDTH 602 0
DWIDTH 19 0
BBX 17 23 2 0
BITMAP
FFE000
FFF800
FFFC00
FFFC00
F87E00
F83E00
F83E00
F83E00
F83E00
F87C00
FFFC00
FFF000
FFE000
FFF000
F9F800
F8F800
F87C00
F87C00
F83E00
F83E00
F81F00
F81F00
F80F80
ENDCHAR
STARTCHAR S
ENCODING 83
SWIDTH 602 0
DWIDTH 19 0
BBX 15 23 2 0
BITMAP
0FF0
3FFC
7FFC
7FFC
FC1C
F804
F800
FC00
FF80
7FE0
3FF8
0FFC
03FC
007E
003E
003E
803E
C03E
F07E
FFFC
FFFC
7FF8
1FE0
ENDCHAR
STARTCHAR T
ENCODING 84
SWIDTH 602 0
DWIDTH 19 0
BBX 17 23 1 0
BITMAP
FFFF80
FFFF80
FFFF80
FFFF80
03E000
03E000
03E000
03E000
03E000
03E000
03E000
03E000
03E000
03E000
03E000
03E000
03E000
03E000
03E000
03E000
03E000
03E000
03E000
ENDCHAR
STARTCHAR U
ENCODING 85
SWIDTH 602 0
DWIDTH 19 0
BBX 16 23 2 0
BITMAP
F81F
F81F
F81F
F81F
F81F
F81F
F81F
F81F
F81F
F81F
F81F
F81F
F81F
F81F
F81F
F81F
F81F
F81F
7C3E
7FFE
3FFC
1FFC
0FF0
ENDCHAR
STARTCHAR V
ENCODING 86
SWIDTH 602 0
DWIDTH 19 0
BBX 17 23 1 0
BITMAP
F80F80
F80F80
780F00
780F00
7C1F00
7C1F00
3C1E00
3C1E00
3C1E00
3E3E00
3E3E00
1E3C00
1E3C00
1E3C00
1F7C00
0F7800
0F7800
0F7800
0F7800
07F000
07F000
07F000
07F000
ENDCHAR
STARTCHAR W
ENCODING 87
SWIDTH 602 0
DWIDTH 19 0
BBX 19 23 0 0
BITMAP
F001E0
F001E0
F001E0
F001E0
7001C0
7801C0
79F3C0
79F3C0
79F3C0
79F3C0
79F3C0
79BBC0
3BBBC0
3BBB80
3BBB80
3FBB80
3F1F80
3F1F80
3F1F80
3F1F80
1F0F80
1E0F80
1E0F00
ENDCHAR
STARTCHAR X
ENCODING 88
SWIDTH 602 0
DWIDTH 19 0
BBX 18 23 0 0
BITMAP
F807C0
7C0F80
7C0F80
3E1F00
1E1E00
1F3E00
0FFC00
0FFC00
07F800
03F000
03F000
01E000
03F000
07F800
07F800
0FFC00
0F3C00
1F3E00
1E1E00
3E1F00
7C0F80
7C0F80
F807C0
ENDCHAR
STARTCHAR Y
ENCODING 89
SWIDTH 602 0
DWIDTH 19 0
BBX 19 23 0 0
BITMAP
F803E0
7C07C0
7C07C0
3E0F80
3E0F80
1F1F00
1F1F00
0FBE00
0FBE00
07BC00
07FC00
03F800
03F800
01F000
01F000
01F000
01F000
01F000
01F000
01F000
01F000
01F000
01F000
ENDCHAR
STARTCHAR Z
ENCODING 90
SWIDTH 602 0
DWIDTH 19 0
BBX 16 23 2 0
BITMAP
FFFF
FFFF
FFFF
FFFF
003E
007E
007C
00F8
01F8
01F0
03E0
07E0
07C0
0F80
1F00
1F00
3E00
7C00
FC00
FFFF
FFFF
FFFF
FFFF
ENDCHAR
STARTCHAR bracketleft
ENCODING 91
SWIDTH 602 0
DWIDTH 19 0
BBX 8 29 7 -5
BITMAP
FF
FF
FF
F0
F0
F0
F0
F0
F0
F0
F0
F0
F0
F0
F0
F0
F0
F0
F0
F0
F0
F0
F0
F0
F0
F0
FF
FF
FF
ENDCHAR
STARTCHAR bracketright
ENCODING 93
SWIDTH 602 0
DWIDTH 19 0
BBX 8 29 5 -5
BITMAP
FF
FF
FF
0F
0F
0F
0F
0F
0F
0F
0F
0F
0F
0F
0F
0F
0F
0F
0F
0F
0F
0F
0F
0F
0F
0F
FF
FF
FF
ENDCHAR
STARTCHAR underscore
ENCODING 95
SWIDTH 602 0
DWIDTH 19 0
BBX 19 3 0 -8
BITMAP
FFFFE0
FFFFE0
FFFFE0
ENDCHAR
STARTCHAR a
ENCODING 97
SWIDTH 602 0
DWIDTH 19 0
BBX 16 18 2 0
BITMAP
0FF0
3FFC
3FFE
383E
201F
001F
0FFF
3FFF
7FFF
FC1F
F81F
F81F
F81F
F83F
FC7F
7FFF
3FDF
1F9F
ENDCHAR
STARTCHAR b
ENCODING 98
SWIDTH 602 0
DWIDTH 19 0
BBX 16 24 2 0
BITMAP
F800
F800
F800
F800
F800
F800
F9F0
FBFC
FFFC
FFFE
FE7E
FC3F
F81F
F81F
F81F
F81F
F81F
F81F
FC3F
FE7E
FFFE
FFFC
FBFC
F9F0
ENDCHAR
STARTCHAR c
ENCODING 99
SWIDTH 602 0
DWIDTH 19 0
BBX 14 18 3 0
BITMAP
07F0
1FFC
3FFC
7FFC
7E04
FC00
F800
F800
F800
F800
F800
F800
FC00
7E04
7FFC
3FFC
1FFC
07F8
ENDCHAR
STARTCHAR d
ENCODING 100
SWIDTH 602 0
DWIDTH 19 0
BBX 16 24 2 0
BITMAP
001F
001F
001F
001F
001F
001F
0F9F
3FDF
3FFF
7FFF
7E7F
FC3F
F81F
F81F
F81F
F81F
F81F
F81F
FC3F
7E7F
7FFF
3FFF
3FDF
0F9F
ENDCHAR
STARTCHAR e
ENCODING 101
SWIDTH 602 0
DWIDTH 19 0
BBX 17 18 2 0
BITMAP
07F000
1FFC00
3FFE00
7FFF00
7E1F00
FC0F80
F80F80
FFFF80
FFFF80
FFFF80
FFFF80
F80000
F80000
7E0300
7FFF00
3FFF00
1FFF00
07FC00
ENDCHAR
STARTCHAR f
ENCODING 102
SWIDTH 602 0
DWIDTH 19 0
BBX 14 24 3 0
BITMAP
01FC
07FC
0FFC
0FFC
0F80
0F80
FFFC
FFFC
FFFC
FFFC
0F80
0F80
0F80
0F80
0F80
0F80
0F80
0F80
0F80
0F80
0F80
0F80
0F80
0F80
ENDCHAR
STARTCHAR g
ENCODING 103
SWIDTH 602 0
DWIDTH 19 0
BBX 16 25 2 -7
BITMAP
0F9F
1FDF
3FFF
7FFF
7E7F
FC3F
F81F
F81F
F81F
F81F
F81F
F81F
FC3F
7E7F
7FFF
3FFF
1FDF
0F9F
001F
001F
303F
3FFE
3FFE
3FFC
0FF0
ENDCHAR
STARTCHAR h
ENCODING 104
SWIDTH 602 0
DWIDTH 19 0
BBX 14 24 3 0
BITMAP
F800
F800
F800
F800
F800
F800
F9E0
FBF8
FFF8
FFFC
FCFC
F87C
F87C
F87C
F87C
F87C
F87C
F87C
F87C
F87C
F87C
F87C
F87C
F87C
ENDCHAR
STARTCHAR i
ENCODING 105
SWIDTH 602 0
DWIDTH 19 0
BBX 17 26 2 0
BITMAP
03E000
03E000
03E000
03E000
03E000
000000
000000
000000
3FE000
3FE000
3FE000
3FE000
03E000
03E000
03E000
03E000
03E000
03E000
03E000
03E000
03E000
03E000
FFFF80
FFFF80
FFFF80
FFFF80
ENDCHAR
STARTCHAR j
ENCODING 106
SWIDTH 602 0
DWIDTH 19 0
BBX 11 33 3 -7
BITMAP
03E0
03E0
03E0
03E0
03E0
0000
0000
0000
7FE0
7FE0
7FE0
7FE0
03E0
03E0
03E0
03E0
03E0
03E0
03E0
03E0
03E0
03E0
03E0
03E0
03E0
03E0
03E0
03E0
07E0
FFC0
FFC0
FF80
FF00
ENDCHAR
STARTCHAR k
ENCODING 107
SWIDTH 602 0
DWIDTH 19 0
BBX 16 24 3 0
BITMAP
F800
F800
F800
F800
F800
F800
F83E
F87C
F8F8
F9F0
FBE0
FBC0
FF80
FFC0
FFC0
FFE0
FDF0
F9F0
F8F8
F878
F87C
F83E
F83E
F81F
ENDCHAR
STARTCHAR l
ENCODING 108
SWIDTH 602 0
DWIDTH 19 0
BBX 16 24 1 0
BITMAP
FFC0
FFC0
FFC0
FFC0
07C0
07C0
07C0
07C0
07C0
07C0
07C0
07C0
07C0
07C0
07C0
07C0
07C0
07C0
07C0
07E0
03FF
03FF
01FF
00FF
ENDCHAR
STARTCHAR m
ENCODING 109
SWIDTH 602 0
DWIDTH 19 0
BBX 16 18 2 0
BITMAP
EF1C
FFBE
FFFE
FFFF
F3CF
F3CF
F3CF
F3CF
F3CF
F3CF
F3CF
F3CF
F3CF
F3CF
F3CF
F3CF
F3CF
F3CF
ENDCHAR
STARTCHAR n
ENCODING 110
SWIDTH 602 0
DWIDTH 19 0
BBX 14 18 3 0
BITMAP
F9E0
FBF8
FFF8
FFFC
FCFC
F87C
F87C
F87C
F87C
F87C
F87C
F87C
F87C
F87C
F87C
F87C
F87C
F87C
ENDCHAR
STARTCHAR o
ENCODING 111
SWIDTH 602 0
DWIDTH 19 0
BBX 16 18 2 0
BITMAP
07E0
1FF8
3FFC
7FFE
7E7E
FC3F
F81F
F81F
F81F
F81F
F81F
F81F
FC3F
7E7E
7FFE
3FFC
1FF8
07E0
ENDCHAR
STARTCHAR p
ENCODING 112
SWIDTH 602 0
DWIDTH 19 0
BBX 16 25 2 -7
BITMAP
F9F0
FBFC
FFFC
FFFE
FE7E
FC3F
F81F
F81F
F81F
F81F
F81F
F81F
FC3F
FE7E
FFFE
FFFC
FBFC
F9F0
F800
F800
F800
F800
F800
F800
F800
ENDCHAR
STARTCHAR q
ENCODING 113
SWIDTH 602 0
DWIDTH 19 0
BBX 16 25 2 -7
BITMAP
0F9F
3FDF
3FFF
7FFF
7E7F
FC3F
F81F
F81F
F81F
F81F
F81F
F81F
FC3F
7E7F
7FFF
3FFF
3FDF
0F9F
001F
001F
001F
001F
001F
001F
001F
ENDCHAR
STARTCHAR r
ENCODING 114
SWIDTH 602 0
DWIDTH 19 0
BBX 13 18 5 0
BITMAP
F9F0
FBF8
FFF8
FFF8
FE08
FC00
F800
F800
F800
F800
F800
F800
F800
F800
F800
F800
F800
F800
ENDCHAR
STARTCHAR s
ENCODING 115
SWIDTH 602 0
DWIDTH 19 0
BBX 14 18 3 0
BITMAP
0FE0
3FF8
7FF8
FFF8
FC18
F800
FC00
FFC0
7FF0
1FF8
03FC
007C
007C
C0FC
FFFC
FFF8
FFF0
3FC0
ENDCHAR
STARTCHAR t
ENCODING 116
SWIDTH 602 0
DWIDTH 19 0
BBX 15 23 2 0
BITMAP
0F80
0F80
0F80
0F80
0F80
FFFE
FFFE
FFFE
FFFE
0F80
0F80
0F80
0F80
0F80
0F80
0F80
0F80
0F80
0FC0
0FFE
07FE
07FE
01FE
ENDCHAR
STARTCHAR u
ENCODING 117
SWIDTH 602 0
DWIDTH 19 0
BBX 14 18 3 0
BITMAP
F87C
F87C
F87C
F87C
F87C
F87C
F87C
F87C
F87C
F87C
F87C
F87C
F87C
FCFC
FFFC
7FFC
7F7C
1E7C
ENDCHAR
STARTCHAR v
ENCODING 118
SWIDTH 602 0
DWIDTH 19 0
BBX 17 18 1 0
BITMAP
F80F80
F80F80
780F00
7C1F00
7C1F00
3C1E00
3C1E00
3E3E00
1E3C00
1E3C00
1E3C00
0F7800
0F7800
0F7800
07F000
07F000
07F000
07F000
ENDCHAR
STARTCHAR w
ENCODING 119
SWIDTH 602 0
DWIDTH 19 0
BBX 19 18 0 0
BITMAP
F001E0
F001E0
F001E0
7001C0
7001C0
78E3C0
79F3C0
79F3C0
79F3C0
39B380
3BB380
3BBF80
3FBF80
3F1F80
1F1F00
1F1F00
1F1F00
1F1F00
ENDCHAR
STARTCHAR x
ENCODING 120
SWIDTH 602 0
DWIDTH 19 0
BBX 18 18 1 0
BITMAP
7E1F80
3E1F00
1F3E00
1F3E00
0FFC00
07F800
07F800
03F000
01E000
03F000
07F800
07F800
0FFC00
1F3E00
1E1F00
3E1F00
7C0F80
FC0FC0
ENDCHAR
STARTCHAR y
ENCODING 121
SWIDTH 602 0
DWIDTH 19 0
BBX 17 25 1 -7
BITMAP
F80F80
780F00
7C1F00
7C1F00
3C1E00
3E3E00
3E3E00
1E3C00
1F3C00
1F7C00
0F7800
0F7800
07F800
07F000
07F000
03E000
03E000
03E000
03C000
07C000
07C000
7F8000
7F8000
7F0000
7E0000
ENDCHAR
STARTCHAR z
ENCODING 122
SWIDTH 602 0
DWIDTH 19 0
BBX 14 18 3 0
BITMAP
FFFC
FFFC
FFFC
FFFC
00F8
01F0
03F0
03E0
07C0
0F80
1F00
3F00
3E00
7C00
FFFC
FFFC
FFFC
FFFC
ENDCHAR
STARTCHAR braceleft
ENCODING 123
SWIDTH 602 0
DWIDTH 19 0
BBX 14 30 3 -6
BITMAP
00FC
03FC
07FC
07C0
0780
0780
0780
0780
0780
0780
0780
0780
0F80
FF00
FC00
FF00
0F80
0780
0780
0780
0780
0780
0780
0780
0780
0780
07C0
07FC
03FC
01FC
ENDCHAR
STARTCHAR bar
ENCODING 124
SWIDTH 602 0
DWIDTH 19 0
BBX 4 32 8 -8
BITMAP
F0
F0
F0
F0
F0
F0
F0
F0
F0
F0
F0
F0
F0
F0
F0
F0
F0
F0
F0
F0
F0
F0
F0
F0
F0
F0
F0
F0
F0
F0
F0
F0
ENDCHAR
STARTCHAR braceright
ENCODING 125
SWIDTH 602 0
DWIDTH 19 0
BBX 14 30 2 -6
BITMAP
FC00
FF00
FF80
0F80
0780
0780
0780
0780
0780
0780
0780
0780
07C0
03FC
00FC
03FC
07C0
0780
0780
0780
0780
0780
0780
0780
0780
0780
0F80
FF80
FF00
FE00
ENDCHAR
STARTCHAR asciitilde
ENCODING 126
SWIDTH 602 0
DWIDTH 19 0
BBX 16 5 1 7
BITMAP
3E01
FF83
FFFF
C1FF
807C
ENDCHAR
STARTCHAR degree
ENCODING 176
SWIDTH 602 0
DWIDTH 19 0
BBX 10 10 4 13
BITMAP
1E00
7F80
7F80
F3C0
E1C0
E1C0
F3C0
7F80
7F80
1E00
ENDCHAR
STARTCHAR plusminus
ENCODING 177
SWIDTH 602 0
DWIDTH 19 0
BBX 16 21 2 0
BITMAP
03C0
03C0
03C0
03C0
03C0
03C0
FFFF
FFFF
FFFF
FFFF
03C0
03C0
03C0
03C0
03C0
03C0
0000
FFFF
FFFF
FFFF
FFFF
ENDCHAR
STARTCHAR mu
ENCODING 181
SWIDTH 602 0
DWIDTH 19 0
BBX 16 25 3 -7
BITMAP
F87C
F87C
F87C
F87C
F87C
F87C
F87C
F87C
F87C
F87C
F87C
F87C
F87C
FCFC
FFFF
FFFF
FFDF
FB8E
F800
F800
F800
F800
F800
F800
F800
ENDCHAR
STARTCHAR paragraph
ENCODING 182
SWIDTH 602 0
DWIDTH 19 0
BBX 16 26 1 -3
BITMAP
0FFF
3FFF
7FC7
7FC7
FFC7
FFC7
FFC7
FFC7
FFC7
7FC7
3FC7
1FC7
07C7
01C7
01C7
01C7
01C7
01C7
01C7
01C7
01C7
01C7
01C7
01C7
01C7
01C7
ENDCHAR
STARTCHAR Adieresis
ENCODING 196
SWIDTH 602 0
DWIDTH 19 0
BBX 18 30 1 0
BITMAP
0F3C00
0F3C00
0F3C00
0F3C00
000000
000000
000000
03F000
03F000
03F000
07F800
07F800
07F800
0FFC00
0F3C00
0F3C00
0F3C00
1F3E00
1E1E00
1E1E00
1FFE00
3FFF00
3FFF00
3FFF00
7C0F80
7C0F80
780780
780780
F807C0
F807C0
ENDCHAR
STARTCHAR Odieresis
ENCODING 214
SWIDTH 602 0
DWIDTH 19 0
BBX 16 30 1 0
BITMAP
1E78
1E78
1E78
1E78
0000
0000
0000
07E0
1FF8
3FFC
3FFC
7E7E
7C3E
FC1E
F81F
F81F
F81F
F81F
F81F
F81F
F81F
F81F
F81F
781E
7C3E
7E7E
3FFC
3FFC
1FF8
07E0
ENDCHAR
STARTCHAR Udieresis
ENCODING 220
SWIDTH 602 0
DWIDTH 19 0
BBX 16 30 2 0
BITMAP
1E78
1E78
1E78
1E78
0000
0000
0000
F81F
F81F
F81F
F81F
F81F
F81F
F81F
F81F
F81F
F81F
F81F
F81F
F81F
F81F
F81F
F81F
F81F
F81F
7C3E
7FFE
3FFC
1FFC
0FF0
ENDCHAR
STARTCHAR germandbls
ENCODING 223
SWIDTH 602 0
DWIDTH 19 0
BBX 16 24 2 0
BITMAP
0FC0
3FF0
7FF8
7FF8
FC7C
F83C
F87C
F8FC
F9F0
F9E0
F9E0
F9E0
F9E0
F8F8
F87C
F83E
F81F
F81F
F81F
FA3F
FBFF
FBFE
FBFC
F9F8
ENDCHAR
STARTCHAR adieresis
ENCODING 228
SWIDTH 602 0
DWIDTH 19 0
BBX 16 25 2 0
BITMAP
1E78
1E78
1E78
1E78
0000
0000
0000
0FF0
3FFC
3FFE
383E
201F
001F
0FFF
3FFF
7FFF
FC1F
F81F
F81F
F81F
F83F
FC7F
7FFF
3FDF
1F9F
ENDCHAR
STARTCHAR odieresis
ENCODING 246
SWIDTH 602 0
DWIDTH 19 0
BBX 16 25 2 0
BITMAP
1E78
1E78
1E78
1E78
0000
0000
0000
07E0
1FF8
3FFC
7FFE
7E7E
FC3F
F81F
F81F
F81F
F81F
F81F
F81F
FC3F
7E7E
7FFE
3FFC
1FF8
07E0
ENDCHAR
STARTCHAR udieresis
ENCODING 252
SWIDTH 602 0
DWIDTH 19 0
BBX 14 25 3 0
BITMAP
3CF0
3CF0
3CF0
3CF0
0000
0000
0000
F87C
F87C
F87C
F87C
F87C
F87C
F87C
F87C
F87C
F87C
F87C
F87C
F87C
FCFC
FFFC
7FFC
7F7C
1E7C
ENDCHAR
STARTCHAR Euro
ENCODING 8364
SWIDTH 602 0
DWIDTH 19 0
BBX 17 23 0 0
BITMAP
007F00
01FF80
03FF80
07FF80
0FC180
0F8080
0F8000
7FFE00
7FFC00
FFFC00
1F0000
1F0000
7FF800
7FF000
FFF000
1F8000
0F8000
0F8080
07E180
07FF80
03FF80
01FF80
007F00
ENDCHAR
ENDFONT
